<svg width="30" height="30" viewBox="0 0 30 30" fill="none" xmlns="http://www.w3.org/2000/svg">
<path d="M9.80621 7.65348L9.80622 7.65344L9.80016 7.65107C8.50151 7.14394 7.07178 7.07964 5.73285 7.46815C4.39391 7.85666 3.22066 8.67625 2.39515 9.79974C1.56964 10.9232 1.13805 12.2878 1.16736 13.6816C1.19666 15.0755 1.68522 16.4207 2.55721 17.5085C3.42921 18.5963 4.63587 19.3658 5.98995 19.6977C7.34403 20.0296 8.76979 19.9053 10.046 19.344C11.3222 18.7828 12.3774 17.816 13.048 16.5937C13.7185 15.3714 13.9668 13.962 13.7545 12.5842C13.7478 12.5409 13.7498 12.4968 13.7602 12.4543C13.7706 12.4118 13.7892 12.3718 13.8151 12.3365C13.841 12.3012 13.8736 12.2714 13.911 12.2487C13.9484 12.226 13.9899 12.2109 14.0331 12.2043C14.0763 12.1976 14.1205 12.1996 14.163 12.21C14.2055 12.2204 14.2455 12.239 14.2808 12.2649C14.316 12.2908 14.3459 12.3234 14.3686 12.3608C14.3912 12.3982 14.4063 12.4397 14.413 12.4829L14.413 12.483C14.6475 14.0058 14.3728 15.5635 13.6316 16.9142C12.8903 18.2649 11.724 19.3333 10.3136 19.9534C8.90311 20.5735 7.32741 20.7108 5.83098 20.3439C4.33455 19.977 3.00105 19.1264 2.03742 17.9242C1.07379 16.722 0.533906 15.2353 0.501545 13.6949C0.469183 12.1545 0.946154 10.6464 1.85844 9.40481C2.77073 8.16317 4.06733 7.25736 5.54703 6.82793C7.02674 6.3985 8.60681 6.46947 10.0421 7.02982L10.042 7.02986L10.0483 7.03222C10.0896 7.0477 10.1274 7.07124 10.1595 7.10146C10.1917 7.13168 10.2175 7.16798 10.2355 7.20825C10.2534 7.24852 10.2633 7.29197 10.2643 7.33606C10.2654 7.38015 10.2577 7.42401 10.2416 7.4651C10.2256 7.50619 10.2015 7.54368 10.1709 7.57541C10.1403 7.60713 10.1036 7.63245 10.0631 7.6499C10.0226 7.66734 9.97904 7.67657 9.93494 7.67704C9.88828 7.67754 9.84475 7.66911 9.80621 7.65348Z" fill="#94A3B8" stroke="#94A3B8"/>
<path fill-rule="evenodd" clip-rule="evenodd" d="M6.66443 27.7097V21.0454C6.66443 20.8245 6.75219 20.6126 6.90842 20.4564C7.06464 20.3002 7.27652 20.2124 7.49746 20.2124C7.71839 20.2124 7.93027 20.3002 8.0865 20.4564C8.24272 20.6126 8.33049 20.8245 8.33049 21.0454V27.7097C8.33049 27.9306 8.24272 28.1425 8.0865 28.2987C7.93027 28.4549 7.71839 28.5427 7.49746 28.5427C7.27652 28.5427 7.06464 28.4549 6.90842 28.2987C6.75219 28.1425 6.66443 27.9306 6.66443 27.7097Z" fill="#94A3B8"/>
<path fill-rule="evenodd" clip-rule="evenodd" d="M4.16528 23.5445C4.16528 23.3236 4.25305 23.1117 4.40927 22.9555C4.56549 22.7993 4.77738 22.7115 4.99831 22.7115H9.99648C10.2174 22.7115 10.4293 22.7993 10.5855 22.9555C10.7417 23.1117 10.8295 23.3236 10.8295 23.5445C10.8295 23.7655 10.7417 23.9773 10.5855 24.1336C10.4293 24.2898 10.2174 24.3775 9.99648 24.3775H4.99831C4.77738 24.3775 4.56549 24.2898 4.40927 24.1336C4.25305 23.9773 4.16528 23.7655 4.16528 23.5445ZM19.0782 7.93606C18.155 7.67544 17.1818 7.64659 16.2448 7.85208C15.3078 8.05756 14.436 8.49102 13.7066 9.11405C12.9772 9.73707 12.4128 10.5304 12.0633 11.4238C11.7139 12.3171 11.5903 13.2829 11.7034 14.2354C11.7169 14.3443 11.7087 14.4549 11.6794 14.5606C11.6501 14.6664 11.6001 14.7653 11.5324 14.8517C11.4648 14.9381 11.3807 15.0103 11.285 15.0641C11.1893 15.1179 11.084 15.1523 10.975 15.1652C10.866 15.1782 10.7555 15.1695 10.6499 15.1396C10.5443 15.1097 10.4456 15.0592 10.3596 14.9911C10.2735 14.923 10.2018 14.8385 10.1485 14.7426C10.0952 14.6466 10.0613 14.5411 10.049 14.432C9.85434 12.7926 10.2063 11.1349 11.0501 9.71594C11.894 8.29702 13.1826 7.19629 14.7159 6.58458C16.2493 5.97286 17.9417 5.88436 19.5305 6.33282C21.1193 6.78127 22.5157 7.74159 23.5029 9.06477C24.4902 10.3879 25.0131 12 24.9905 13.6507C24.9679 15.3014 24.4011 16.8986 23.3781 18.1942C22.355 19.4899 20.9329 20.4117 19.3324 20.8165C17.7319 21.2213 16.0426 21.0866 14.5265 20.4332C14.426 20.3899 14.335 20.3273 14.2588 20.2488C14.1825 20.1704 14.1224 20.0777 14.082 19.9761C14.0003 19.7708 14.0034 19.5415 14.0908 19.3386C14.1782 19.1356 14.3426 18.9757 14.5479 18.894C14.7532 18.8123 14.9825 18.8155 15.1854 18.9029C15.9183 19.2187 16.7082 19.3806 17.5063 19.3788C18.3043 19.377 19.0935 19.2113 19.8249 18.8922C20.5563 18.573 21.2145 18.1071 21.7586 17.5233C22.3026 16.9395 22.7211 16.2503 22.9881 15.4982C23.255 14.7461 23.3648 13.9473 23.3105 13.1511C23.2562 12.3549 23.0391 11.5783 22.6726 10.8695C22.3061 10.1606 21.7979 9.53446 21.1797 9.02989C20.5614 8.52532 19.8461 8.15303 19.0782 7.93606Z" fill="#94A3B8"/>
<path fill-rule="evenodd" clip-rule="evenodd" d="M22.3195 9.55554C22.1633 9.39933 22.0756 9.18748 22.0756 8.96659C22.0756 8.7457 22.1633 8.53386 22.3195 8.37764L28.5672 2.12992C28.644 2.05036 28.7359 1.9869 28.8376 1.94324C28.9392 1.89958 29.0485 1.8766 29.1591 1.87564C29.2697 1.87468 29.3794 1.89576 29.4818 1.93764C29.5842 1.97953 29.6772 2.04138 29.7554 2.1196C29.8336 2.19781 29.8955 2.29082 29.9374 2.3932C29.9792 2.49558 30.0003 2.60527 29.9994 2.71588C29.9984 2.82649 29.9754 2.9358 29.9318 3.03743C29.8881 3.13906 29.8246 3.23098 29.7451 3.30783L23.4974 9.55554C23.3411 9.71171 23.1293 9.79944 22.9084 9.79944C22.6875 9.79944 22.4757 9.71171 22.3195 9.55554Z" fill="#94A3B8"/>
<path fill-rule="evenodd" clip-rule="evenodd" d="M29.0928 7.71703C28.9834 7.71562 28.8753 7.69267 28.7748 7.64949C28.6743 7.60632 28.5832 7.54377 28.5069 7.4654C28.4305 7.38704 28.3704 7.29441 28.3298 7.19279C28.2893 7.09118 28.2691 6.98257 28.2706 6.87317L28.3122 3.56272L25.0018 3.60437C24.7808 3.60724 24.5678 3.52223 24.4096 3.36804C24.2513 3.21384 24.1608 3.0031 24.1579 2.78217C24.155 2.56124 24.24 2.34821 24.3942 2.18996C24.5484 2.0317 24.7592 1.94118 24.9801 1.93831L29.9999 1.875L29.9366 6.89483C29.9352 7.00423 29.9123 7.11228 29.8691 7.2128C29.8259 7.31333 29.7634 7.40437 29.685 7.48072C29.6066 7.55707 29.514 7.61724 29.4124 7.65778C29.3108 7.69833 29.2022 7.71846 29.0928 7.71703Z" fill="#94A3B8"/>
</svg>
