<svg width="30" height="30" viewBox="0 0 30 30" fill="none" xmlns="http://www.w3.org/2000/svg">
<path d="M8.64176 23.1193L8.61874 23.1553L8.65248 23.1815C10.4673 24.593 12.7009 25.3593 15 25.3593C17.2991 25.3593 19.5327 24.593 21.3475 23.1815L21.3813 23.1553L21.3582 23.1193C20.6758 22.052 19.7357 21.1736 18.6245 20.5652C17.5133 19.9568 16.2668 19.6379 15 19.6379C13.7332 19.6379 12.4867 19.9568 11.3755 20.5652C10.2643 21.1736 9.32421 22.052 8.64176 23.1193ZM22.6677 21.8715L22.7016 21.9207L22.7413 21.8761C24.0685 20.3836 24.936 18.5392 25.2393 16.5651C25.5425 14.591 25.2687 12.5713 24.4507 10.7493C23.6327 8.92721 22.3054 7.38045 20.6287 6.29526C18.9519 5.21007 16.9973 4.63271 15 4.63271C13.0027 4.63271 11.0481 5.21007 9.37134 6.29526C7.69461 7.38045 6.36734 8.92721 5.54933 10.7493C4.73133 12.5713 4.45748 14.591 4.76076 16.5651C5.06404 18.5392 5.93151 20.3836 7.25873 21.8761L7.29841 21.9207L7.33234 21.8715C8.37267 20.364 9.83551 19.1977 11.5369 18.5193L11.6124 18.4892L11.5485 18.439C10.6377 17.7215 9.97299 16.7381 9.64695 15.6254C9.32091 14.5127 9.34972 13.326 9.72936 12.2304C10.109 11.1349 10.8206 10.1848 11.7652 9.51243C12.7098 8.84004 13.8405 8.47872 15 8.47872C16.1595 8.47872 17.2902 8.84004 18.2348 9.51243C19.1794 10.1848 19.891 11.1349 20.2707 12.2304C20.6503 13.326 20.6791 14.5127 20.3531 15.6254C20.027 16.7381 19.3623 17.7215 18.4515 18.439L18.3876 18.4892L18.4631 18.5193C20.1645 19.1977 21.6273 20.364 22.6677 21.8715ZM8.25504 4.90544C10.2515 3.57141 12.5988 2.85938 15 2.85938C18.2188 2.86278 21.3049 4.14297 23.581 6.41905C25.857 8.69513 27.1372 11.7812 27.1406 15C27.1406 17.4012 26.4286 19.7485 25.0946 21.745C23.7605 23.7415 21.8644 25.2976 19.646 26.2165C17.4276 27.1354 14.9865 27.3758 12.6315 26.9073C10.2764 26.4389 8.11318 25.2826 6.41529 23.5847C4.71739 21.8868 3.56111 19.7236 3.09266 17.3685C2.62421 15.0135 2.86464 12.5724 3.78353 10.354C4.70243 8.13557 6.25852 6.23947 8.25504 4.90544ZM11.843 11.9531C11.4258 12.5775 11.2031 13.3115 11.2031 14.0625C11.2031 15.0695 11.6032 16.0352 12.3152 16.7473C13.0273 17.4593 13.993 17.8594 15 17.8594C15.751 17.8594 16.485 17.6367 17.1094 17.2195C17.7338 16.8023 18.2205 16.2093 18.5079 15.5155C18.7952 14.8217 18.8704 14.0583 18.7239 13.3218C18.5774 12.5852 18.2158 11.9087 17.6848 11.3777C17.1538 10.8467 16.4773 10.4851 15.7407 10.3386C15.0042 10.1921 14.2408 10.2673 13.547 10.5546C12.8532 10.842 12.2602 11.3287 11.843 11.9531Z" fill="#94A3B8" stroke="#94A3B8" stroke-width="0.09375"/>
</svg>
