<svg width="30" height="30" viewBox="0 0 30 30" fill="none" xmlns="http://www.w3.org/2000/svg">
<path d="M9.0625 8.25H9.8125V7.5V4.6875C9.8125 4.11478 10.0078 3.6434 10.4193 3.23266C10.8313 2.82129 11.3034 2.62579 11.8755 2.625H17.5C18.0728 2.625 18.5448 2.82035 18.9567 3.23221C19.3685 3.64403 19.5632 4.11536 19.5625 4.68659V4.6875V7.5V8.25H20.3125H25.9375C26.5103 8.25 26.9823 8.44535 27.3942 8.8572C27.806 9.26903 28.0007 9.74036 28 10.3116V10.3125V25.7812C28 26.3544 27.8048 26.8266 27.3937 27.2384C26.9834 27.6494 26.512 27.8444 25.9384 27.8437H25.9375H3.4375C2.86437 27.8437 2.39285 27.6486 1.98221 27.2379C1.57163 26.8274 1.37579 26.3552 1.375 25.7808V10.3125C1.375 9.73978 1.57031 9.2684 1.98175 8.85766C2.39383 8.44628 2.86593 8.25078 3.43804 8.25C3.43816 8.25 3.43829 8.25 3.43841 8.25L9.0625 8.25ZM11.125 7.5V8.25H11.875H17.5H18.25V7.5V4.6875V3.9375H17.5H11.875H11.125V4.6875V7.5Z" stroke="#94A3B8" stroke-width="1.5"/>
</svg>
