<svg width="30" height="30" viewBox="0 0 30 30" fill="none" xmlns="http://www.w3.org/2000/svg">
<path d="M7.25 18H5.75V10.5C5.75 9.90326 5.98705 9.33097 6.40901 8.90901C6.83097 8.48705 7.40326 8.25 8 8.25H12.5C13.0967 8.25 13.669 8.48705 14.091 8.90901C14.5129 9.33097 14.75 9.90326 14.75 10.5V18H13.25H12.5V18.75V29.25H8V18.75V18H7.25ZM21.5 24.75H20V20.25H27.5V24.75H26H25.25V25.5V29.25H22.25V25.5V24.75H21.5ZM10.25 0.75C10.8467 0.75 11.419 0.987053 11.841 1.40901C12.2629 1.83097 12.5 2.40326 12.5 3C12.5 3.59674 12.2629 4.16903 11.841 4.59099C11.419 5.01295 10.8467 5.25 10.25 5.25C9.65326 5.25 9.08097 5.01295 8.65901 4.59099C8.23705 4.16903 8 3.59674 8 3C8 2.40326 8.23705 1.83097 8.65901 1.40901C9.08097 0.987053 9.65326 0.75 10.25 0.75ZM21.5 15C21.5 14.4033 21.7371 13.831 22.159 13.409C22.581 12.9871 23.1533 12.75 23.75 12.75C24.3467 12.75 24.919 12.9871 25.341 13.409C25.7629 13.831 26 14.4033 26 15C26 15.5967 25.7629 16.169 25.341 16.591C24.919 17.0129 24.3467 17.25 23.75 17.25C23.1533 17.25 22.581 17.0129 22.159 16.591C21.7371 16.169 21.5 15.5967 21.5 15Z" stroke="#94A3B8" stroke-width="1.5"/>
</svg>
